<svg id="visual" viewBox="0 0 960 540" width="960" height="540" xmlns="http://www.w3.org/2000/svg" xmlns:xlink="http://www.w3.org/1999/xlink" version="1.1"><rect x="0" y="0" width="960" height="540" fill="#57419d"></rect><g fill="none" stroke="#9e7297" stroke-width="2"><circle r="52" cx="921" cy="93"></circle><circle r="2" cx="236" cy="100"></circle><circle r="1" cx="648" cy="145"></circle><circle r="22" cx="559" cy="350"></circle><circle r="17" cx="304" cy="13"></circle><circle r="38" cx="450" cy="465"></circle><circle r="40" cx="459" cy="215"></circle><circle r="46" cx="901" cy="377"></circle><circle r="30" cx="98" cy="60"></circle><circle r="39" cx="702" cy="515"></circle><circle r="19" cx="188" cy="311"></circle><circle r="30" cx="249" cy="474"></circle><circle r="25" cx="735" cy="363"></circle><circle r="38" cx="880" cy="503"></circle><circle r="31" cx="709" cy="32"></circle><circle r="44" cx="474" cy="82"></circle><circle r="33" cx="46" cy="331"></circle><circle r="4" cx="540" cy="526"></circle></g></svg>